<svg id="Layer_1" data-name="Layer 1" xmlns="http://www.w3.org/2000/svg" viewBox="0 0 379.92 380.88"><defs><style>.cls-1{fill:none;}.cls-2{fill:#d42428;}</style></defs><title>tube</title><path class="cls-1" d="M0,0V190.35C0,85.65,84.88.77,189.57.77S379.15,85.65,379.15,190.35,294.27,379.92,189.57,379.92,0,295,0,190.35V380.88H379.92V0Z"/><path class="cls-2" d="M189.57,379.92c104.7,0,189.57-84.87,189.57-189.57S294.27.77,189.57.77,0,85.65,0,190.35,84.88,379.92,189.57,379.92ZM96.34,153.77A28.77,28.77,0,0,1,125.1,125H260a28.76,28.76,0,0,1,28.76,28.77h0v77.15A28.76,28.76,0,0,1,260,259.69H125.1a28.76,28.76,0,0,1-28.75-28.77Z"/><polygon class="cls-2" points="173.31 152.42 173.31 224.89 228.27 188.66 173.31 152.42"/></svg>